# xmcd CD database file
#
# Track frame offsets:
#	150
#	27081
#	55332
#	84105
#	120576
#	146300
#	177476
#	207989
#	229372
#	259880
#	293054
#	331512
#
# Disc length: 4706 seconds
#
# Revision: 0
# Processed by: cddbd v1.4PL0 Copyright (c) Steve Scherf et al.
# Submitted via: CDex 1.50beta10
#
DISCID=a212600c
DTITLE=Johnny Hammond Smith - Gambler's life
DYEAR=1974
DGENRE=Jazz
TTITLE0=Gambler's life
TTITLE1=Rhodesian thoroughfare
TTITLE2=This year's dream
TTITLE3=Star borne
TTITLE4=Back to the projects
TTITLE5=Yesterday was cool
TTITLE6=Virgo lady
TTITLE7=Call on me
TTITLE8=Rock steady
TTITLE9=Who is Sylvia
TTITLE10=Higher ground
TTITLE11=Breakout
EXTD=YEAR: 1974
EXTT0=
EXTT1=
EXTT2=
EXTT3=
EXTT4=
EXTT5=
EXTT6=
EXTT7=
EXTT8=
EXTT9=
EXTT10=
EXTT11=
PLAYORDER=
